<svg xmlns="http://www.w3.org/2000/svg" width="256" height="1024" viewBox="0 0 256 1024"><path d="M 216,599 L 216,602 L 219,602 L 219,600 L 218,599 Z" fill="white"/><path d="M 250,592 L 250,594 L 251,594 L 252,593 L 252,592 Z" fill="white"/><path d="M 223,592 L 223,594 L 225,594 L 225,593 L 224,592 Z" fill="white"/><path d="M 237,580 L 237,584 L 236,585 L 236,587 L 237,587 L 238,586 L 242,586 L 243,587 L 243,593 L 243,588 L 245,586 L 244,585 L 238,585 L 237,584 Z" fill="white"/><path d="M 250,578 L 250,579 L 249,580 L 250,581 L 252,581 L 252,579 L 251,578 Z" fill="white"/><path d="M 222,578 L 222,584 L 221,585 L 216,585 L 216,587 L 219,587 L 220,586 L 225,586 L 225,578 Z" fill="white"/><path d="M 243,573 L 243,574 L 244,574 L 244,573 Z" fill="white"/><path d="M 229,572 L 229,575 L 231,575 L 232,574 L 232,573 L 231,572 Z" fill="white"/><path d="M 250,566 L 250,568 L 251,568 L 252,567 L 252,566 Z" fill="white"/><path d="M 237,566 L 236,567 L 237,568 L 238,568 L 238,566 Z" fill="white"/><path d="M 243,560 L 243,561 L 244,562 L 245,561 L 245,560 Z" fill="white"/><path d="M 229,559 L 229,562 L 231,562 L 232,561 L 232,560 L 231,559 Z" fill="white"/><path d="M 250,553 L 250,555 L 252,555 L 252,553 Z" fill="white"/><path d="M 236,547 L 236,549 L 244,549 L 245,548 L 245,547 Z" fill="white"/><path d="M 211,547 L 211,549 L 213,549 L 213,548 L 212,547 Z" fill="white"/><path d="M 250,540 L 250,542 L 252,542 L 252,540 Z" fill="white"/><path d="M 243,535 L 244,535 Z" fill="white"/><path d="M 243,528 L 243,529 L 244,529 L 244,528 Z" fill="white"/><path d="M 230,527 L 229,528 L 229,533 L 228,534 L 223,534 L 222,535 L 222,536 L 223,537 L 224,537 L 225,536 L 226,536 L 227,535 L 230,535 L 230,531 L 231,530 L 231,528 Z" fill="white"/><path d="M 223,521 L 223,522 L 225,522 L 225,521 Z" fill="white"/><path d="M 210,521 L 210,522 L 211,523 L 212,522 L 212,521 Z" fill="white"/><path d="M 230,514 L 230,516 L 231,516 L 231,514 Z" fill="white"/><path d="M 210,508 L 210,510 L 212,510 L 212,508 Z" fill="white"/><path d="M 224,507 L 222,509 L 223,510 L 225,510 L 225,508 Z" fill="white"/><path d="M 217,502 L 218,502 Z" fill="white"/><path d="M 224,494 L 223,495 L 223,497 L 224,497 L 225,496 L 225,495 Z" fill="white"/><path d="M 230,488 L 230,490 L 232,490 L 232,489 L 231,488 Z" fill="white"/><path d="M 210,488 L 210,497 L 211,497 L 212,496 L 212,491 L 213,490 L 217,490 L 217,489 L 213,489 L 212,488 Z" fill="white"/><path d="M 250,476 L 250,484 L 251,484 L 252,483 L 251,482 L 251,476 Z" fill="white"/><path d="M 250,443 L 250,445 L 252,445 L 252,443 Z" fill="white"/><path d="M 255,401 L 253,403 L 251,403 L 250,404 L 249,404 L 248,405 L 247,405 L 245,407 L 244,407 L 243,408 L 241,408 L 240,409 L 237,409 L 236,410 L 232,410 L 231,411 L 222,411 L 221,412 L 219,412 L 218,413 L 216,413 L 215,414 L 214,414 L 214,415 L 213,416 L 210,416 L 209,417 L 208,417 L 205,420 L 204,420 L 201,423 L 200,423 L 199,424 L 199,425 L 197,427 L 196,427 L 195,428 L 195,429 L 194,430 L 193,430 L 191,432 L 191,433 L 190,434 L 190,435 L 185,440 L 185,441 L 184,442 L 184,443 L 183,444 L 182,444 L 182,447 L 179,450 L 179,451 L 178,452 L 177,452 L 177,453 L 176,454 L 176,455 L 175,456 L 175,459 L 174,460 L 174,462 L 172,464 L 172,465 L 171,466 L 171,467 L 170,468 L 170,471 L 169,472 L 169,473 L 168,474 L 168,479 L 167,480 L 167,486 L 166,487 L 166,488 L 165,489 L 165,491 L 166,492 L 166,497 L 165,498 L 165,500 L 164,501 L 164,521 L 163,522 L 163,524 L 162,525 L 162,560 L 163,561 L 163,568 L 164,569 L 164,573 L 165,574 L 165,576 L 166,577 L 166,579 L 167,580 L 167,581 L 168,582 L 168,583 L 169,584 L 169,586 L 171,588 L 171,589 L 172,590 L 172,591 L 174,593 L 174,594 L 178,598 L 178,599 L 179,600 L 179,601 L 180,602 L 180,606 L 179,607 L 179,609 L 177,611 L 177,612 L 176,613 L 176,618 L 175,619 L 175,631 L 174,632 L 174,635 L 173,636 L 173,637 L 172,638 L 172,640 L 171,641 L 171,642 L 170,643 L 170,644 L 169,645 L 169,646 L 168,647 L 168,648 L 167,649 L 167,650 L 166,651 L 166,652 L 165,653 L 165,654 L 163,656 L 162,656 L 162,657 L 160,659 L 160,660 L 158,662 L 158,664 L 156,666 L 156,669 L 155,670 L 155,687 L 154,688 L 154,689 L 153,690 L 153,692 L 152,693 L 152,699 L 151,700 L 151,711 L 152,712 L 152,716 L 155,719 L 156,719 L 157,720 L 158,720 L 159,721 L 162,721 L 164,723 L 175,723 L 176,724 L 216,724 L 217,723 L 255,723 L 255,714 L 246,714 L 245,713 L 245,699 L 246,698 L 255,698 L 255,686 L 246,686 L 245,685 L 245,677 L 246,676 L 250,676 L 251,677 L 252,677 L 253,676 L 255,676 L 255,674 L 246,674 L 245,673 L 245,660 L 246,659 L 250,659 L 250,658 L 246,658 L 245,657 L 245,651 L 244,650 L 244,646 L 245,645 L 245,637 L 246,636 L 252,636 L 253,635 L 255,635 L 255,612 L 246,612 L 244,610 L 244,606 L 243,605 L 243,601 L 244,600 L 244,599 L 243,599 L 243,605 L 242,606 L 238,606 L 237,605 L 237,610 L 236,611 L 232,611 L 231,610 L 231,606 L 230,605 L 223,605 L 223,609 L 222,610 L 214,610 L 213,609 L 213,605 L 207,605 L 206,604 L 206,595 L 207,594 L 211,594 L 211,593 L 212,592 L 206,592 L 205,591 L 205,587 L 206,586 L 206,582 L 207,581 L 213,581 L 213,577 L 207,577 L 206,576 L 206,567 L 204,565 L 204,561 L 205,560 L 209,560 L 211,562 L 215,562 L 216,563 L 216,567 L 217,568 L 217,572 L 216,573 L 216,574 L 218,574 L 218,569 L 219,568 L 225,568 L 225,566 L 219,566 L 218,565 L 218,555 L 219,554 L 225,554 L 225,553 L 217,553 L 217,558 L 216,559 L 211,559 L 210,560 L 205,560 L 204,559 L 204,555 L 205,554 L 204,553 L 204,548 L 205,547 L 204,546 L 204,530 L 205,529 L 205,528 L 203,526 L 203,517 L 204,516 L 204,514 L 203,513 L 203,504 L 204,503 L 205,503 L 206,502 L 206,500 L 204,500 L 203,499 L 203,491 L 204,490 L 204,485 L 205,484 L 206,484 L 206,479 L 208,477 L 217,477 L 218,478 L 222,478 L 223,479 L 223,483 L 225,483 L 225,476 L 219,476 L 218,475 L 214,475 L 213,474 L 213,466 L 214,465 L 217,465 L 218,464 L 223,464 L 224,465 L 224,470 L 229,470 L 230,471 L 231,471 L 231,469 L 230,469 L 229,470 L 225,470 L 224,469 L 224,465 L 225,464 L 225,453 L 226,452 L 235,452 L 236,453 L 236,459 L 242,459 L 243,460 L 243,469 L 242,470 L 237,470 L 237,475 L 236,476 L 236,483 L 242,483 L 243,484 L 243,488 L 242,489 L 242,506 L 241,507 L 236,507 L 236,510 L 242,510 L 243,511 L 243,520 L 242,521 L 236,521 L 236,522 L 237,523 L 238,523 L 239,522 L 244,522 L 245,521 L 249,521 L 250,522 L 250,523 L 255,523 L 255,506 L 253,506 L 252,505 L 252,504 L 251,503 L 251,501 L 249,501 L 248,500 L 248,497 L 247,496 L 247,487 L 245,487 L 244,486 L 244,482 L 243,483 L 239,483 L 238,482 L 238,476 L 237,475 L 237,471 L 238,470 L 242,470 L 243,471 L 244,471 L 244,452 L 245,451 L 244,450 L 244,440 L 245,439 L 245,433 L 246,432 L 252,432 L 251,431 L 251,427 L 252,426 L 252,418 L 253,417 L 255,417 Z" fill="white"/><path d="M 31,362 L 30,363 L 29,363 L 28,364 L 26,364 L 24,366 L 23,366 L 23,368 L 22,369 L 22,370 L 21,371 L 21,375 L 20,376 L 20,387 L 17,390 L 17,391 L 16,392 L 16,393 L 15,394 L 15,395 L 14,396 L 14,398 L 9,403 L 8,403 L 7,404 L 6,404 L 5,405 L 4,405 L 4,406 L 2,408 L 0,408 L 0,722 L 10,722 L 11,723 L 30,723 L 31,722 L 40,722 L 41,723 L 42,722 L 51,722 L 52,723 L 61,723 L 62,722 L 69,722 L 70,723 L 81,723 L 82,722 L 103,722 L 104,723 L 105,722 L 107,722 L 108,721 L 109,721 L 110,720 L 112,720 L 116,716 L 116,712 L 117,711 L 117,703 L 116,702 L 116,701 L 115,700 L 115,698 L 114,697 L 114,696 L 113,695 L 113,692 L 112,691 L 112,687 L 113,686 L 113,685 L 114,684 L 114,681 L 113,680 L 113,676 L 111,674 L 111,672 L 110,671 L 110,669 L 108,667 L 108,666 L 107,666 L 106,665 L 106,664 L 104,662 L 104,660 L 101,657 L 101,656 L 100,655 L 100,654 L 97,651 L 97,650 L 96,649 L 96,648 L 95,647 L 95,646 L 94,646 L 93,645 L 93,642 L 92,641 L 92,640 L 91,639 L 91,638 L 90,637 L 90,636 L 89,635 L 89,623 L 88,622 L 88,621 L 87,621 L 86,620 L 86,619 L 84,617 L 84,616 L 80,612 L 80,611 L 78,609 L 78,606 L 77,605 L 77,601 L 76,600 L 76,599 L 75,599 L 74,598 L 74,596 L 73,595 L 73,590 L 72,589 L 72,586 L 71,585 L 71,582 L 70,581 L 70,576 L 69,575 L 69,570 L 68,569 L 68,563 L 67,562 L 67,561 L 66,560 L 66,550 L 65,549 L 65,542 L 66,541 L 66,540 L 69,537 L 70,537 L 72,535 L 73,535 L 74,534 L 75,534 L 76,533 L 77,533 L 79,531 L 81,531 L 81,530 L 83,528 L 84,528 L 85,527 L 85,515 L 82,512 L 82,511 L 80,509 L 80,508 L 79,507 L 79,506 L 78,506 L 77,505 L 77,504 L 76,503 L 76,500 L 74,498 L 74,496 L 73,495 L 73,494 L 72,493 L 72,487 L 73,486 L 73,482 L 74,481 L 74,480 L 75,479 L 75,476 L 77,474 L 77,472 L 78,471 L 78,469 L 79,468 L 79,452 L 78,451 L 78,440 L 76,438 L 76,434 L 75,433 L 75,432 L 73,430 L 73,426 L 72,425 L 72,424 L 71,423 L 71,421 L 70,420 L 70,419 L 66,415 L 66,414 L 64,412 L 64,410 L 63,410 L 62,409 L 62,408 L 60,406 L 60,405 L 56,401 L 56,398 L 55,398 L 54,397 L 54,395 L 48,389 L 48,387 L 47,386 L 47,374 L 46,373 L 46,370 L 45,369 L 45,368 L 42,365 L 41,365 L 39,363 L 32,363 Z" fill="white"/></svg>