<svg xmlns="http://www.w3.org/2000/svg" width="256" height="1024" viewBox="0 0 256 1024"><path d="M 144,215 L 143,216 L 140,216 L 140,217 L 139,218 L 139,220 L 138,221 L 138,227 L 137,228 L 131,228 L 130,229 L 129,229 L 129,230 L 128,231 L 128,247 L 127,248 L 128,249 L 128,259 L 129,260 L 130,260 L 131,261 L 132,261 L 135,264 L 135,270 L 134,271 L 134,273 L 133,274 L 133,275 L 130,278 L 127,278 L 126,279 L 120,279 L 119,280 L 118,280 L 117,281 L 116,281 L 115,282 L 113,282 L 112,283 L 111,283 L 110,284 L 109,284 L 107,286 L 104,286 L 102,288 L 100,288 L 98,290 L 96,290 L 94,292 L 93,292 L 92,293 L 92,302 L 94,304 L 94,308 L 95,309 L 95,310 L 96,311 L 96,312 L 97,313 L 97,316 L 98,316 L 99,317 L 99,320 L 100,321 L 100,323 L 101,324 L 101,325 L 102,326 L 102,328 L 103,329 L 103,330 L 104,331 L 104,332 L 105,333 L 105,335 L 107,337 L 107,339 L 108,340 L 108,342 L 109,343 L 109,344 L 110,345 L 110,347 L 111,348 L 111,349 L 112,350 L 112,356 L 114,358 L 114,367 L 113,368 L 113,370 L 112,371 L 112,386 L 110,388 L 110,389 L 109,390 L 108,390 L 106,392 L 105,392 L 104,393 L 103,393 L 103,400 L 101,402 L 100,402 L 99,403 L 98,403 L 96,405 L 96,406 L 95,407 L 95,418 L 96,418 L 97,419 L 97,420 L 98,421 L 100,421 L 101,422 L 101,423 L 106,423 L 107,424 L 111,424 L 112,425 L 114,425 L 116,427 L 117,427 L 118,428 L 118,429 L 119,430 L 119,431 L 120,431 L 121,432 L 121,437 L 120,438 L 120,440 L 121,441 L 121,453 L 120,454 L 119,454 L 119,468 L 118,469 L 118,474 L 117,475 L 117,495 L 116,496 L 116,500 L 115,501 L 115,518 L 114,519 L 114,527 L 113,528 L 113,533 L 112,534 L 112,539 L 111,540 L 112,541 L 112,546 L 111,547 L 111,551 L 110,552 L 110,557 L 109,558 L 109,564 L 107,566 L 107,572 L 106,573 L 106,580 L 105,581 L 105,587 L 104,588 L 104,591 L 103,592 L 103,598 L 102,599 L 102,601 L 101,602 L 100,602 L 94,608 L 93,608 L 93,609 L 92,610 L 92,613 L 91,614 L 91,627 L 90,628 L 90,630 L 88,632 L 88,633 L 87,634 L 86,634 L 86,635 L 84,637 L 84,638 L 82,640 L 82,641 L 80,643 L 80,644 L 79,645 L 79,646 L 78,647 L 78,648 L 77,649 L 77,650 L 76,651 L 76,653 L 75,654 L 74,654 L 74,655 L 71,658 L 71,659 L 70,660 L 70,661 L 69,662 L 69,663 L 68,664 L 68,665 L 67,666 L 67,670 L 68,671 L 68,676 L 67,677 L 67,679 L 68,680 L 68,681 L 69,682 L 69,687 L 65,691 L 65,692 L 64,693 L 64,715 L 65,716 L 65,717 L 66,718 L 66,719 L 67,719 L 69,721 L 71,721 L 72,722 L 75,722 L 76,723 L 132,723 L 133,722 L 142,722 L 143,723 L 216,723 L 217,722 L 224,722 L 225,721 L 230,721 L 231,722 L 231,723 L 247,723 L 248,722 L 255,722 L 255,661 L 253,661 L 252,660 L 252,659 L 251,658 L 251,657 L 248,654 L 248,653 L 246,651 L 246,650 L 245,650 L 244,649 L 244,648 L 242,646 L 242,645 L 241,645 L 240,644 L 240,642 L 238,640 L 238,637 L 237,636 L 237,635 L 235,633 L 235,632 L 234,631 L 233,631 L 232,630 L 232,629 L 231,628 L 231,613 L 230,612 L 230,611 L 224,605 L 224,604 L 219,599 L 219,598 L 218,597 L 218,590 L 217,589 L 217,584 L 216,583 L 216,580 L 215,579 L 215,572 L 214,571 L 214,568 L 213,567 L 213,560 L 212,559 L 212,554 L 211,553 L 211,552 L 210,551 L 210,546 L 209,545 L 209,536 L 208,535 L 208,526 L 207,525 L 207,518 L 206,517 L 206,507 L 205,506 L 205,494 L 204,493 L 204,487 L 205,486 L 204,485 L 204,467 L 203,466 L 203,452 L 202,451 L 202,444 L 201,443 L 201,430 L 202,429 L 203,429 L 204,428 L 205,428 L 206,427 L 207,427 L 208,426 L 210,426 L 211,425 L 214,425 L 215,424 L 220,424 L 224,420 L 225,420 L 227,418 L 227,407 L 222,402 L 221,402 L 219,400 L 219,395 L 218,394 L 218,393 L 217,393 L 216,392 L 216,391 L 215,390 L 211,390 L 210,389 L 210,388 L 209,388 L 206,385 L 206,381 L 208,379 L 208,378 L 210,376 L 210,373 L 209,372 L 209,371 L 206,368 L 206,357 L 207,356 L 207,354 L 208,353 L 208,352 L 209,351 L 209,349 L 210,348 L 210,347 L 211,346 L 211,344 L 212,343 L 212,342 L 213,341 L 213,339 L 214,338 L 214,337 L 215,336 L 215,334 L 216,333 L 216,331 L 217,330 L 217,329 L 218,328 L 218,327 L 219,326 L 219,324 L 220,323 L 220,322 L 221,321 L 221,319 L 222,318 L 222,316 L 224,314 L 224,311 L 225,310 L 225,309 L 226,308 L 226,305 L 228,303 L 228,300 L 229,299 L 229,297 L 228,296 L 228,295 L 223,290 L 220,290 L 217,287 L 216,287 L 214,285 L 213,285 L 212,284 L 210,284 L 209,283 L 207,283 L 206,282 L 203,282 L 202,281 L 198,281 L 197,280 L 196,280 L 194,278 L 190,278 L 188,276 L 188,275 L 186,273 L 186,272 L 184,270 L 184,263 L 186,261 L 189,261 L 190,260 L 191,260 L 192,259 L 192,230 L 191,229 L 190,229 L 189,228 L 188,229 L 184,229 L 183,228 L 183,219 L 182,218 L 182,217 L 181,216 L 175,216 L 174,215 L 166,215 L 165,216 L 161,216 L 160,215 Z" fill="white"/></svg>