<svg xmlns="http://www.w3.org/2000/svg" width="256" height="1024" viewBox="0 0 256 1024"><path d="M 0,708 L 0,709 L 3,709 L 3,708 Z" fill="white"/><path d="M 9,663 L 9,665 L 11,665 L 12,664 L 12,663 Z" fill="white"/><path d="M 27,657 L 27,658 L 28,659 L 29,658 L 29,657 Z" fill="white"/><path d="M 13,657 L 13,659 L 15,659 L 15,657 Z" fill="white"/><path d="M 21,650 L 21,651 L 22,651 L 22,650 Z" fill="white"/><path d="M 9,649 L 9,652 L 11,652 L 12,651 L 12,650 L 10,650 Z" fill="white"/><path d="M 27,598 L 27,600 L 29,600 L 29,598 Z" fill="white"/><path d="M 9,592 L 9,593 L 10,594 L 11,594 L 12,593 L 13,593 L 12,592 Z" fill="white"/><path d="M 21,585 L 21,594 L 22,594 L 22,585 Z" fill="white"/><path d="M 0,585 L 0,587 L 3,587 L 4,586 L 3,585 Z" fill="white"/><path d="M 9,579 L 9,580 L 15,580 L 12,580 L 11,579 Z" fill="white"/><path d="M 0,566 L 0,568 L 3,568 L 3,566 Z" fill="white"/><path d="M 0,554 L 2,554 Z" fill="white"/><path d="M 0,495 L 0,496 L 2,496 L 3,495 Z" fill="white"/><path d="M 21,489 L 22,489 Z" fill="white"/><path d="M 9,488 L 8,489 L 9,490 L 9,491 L 10,491 L 11,490 L 11,489 L 10,488 Z" fill="white"/><path d="M 203,471 L 202,472 L 195,472 L 194,473 L 193,473 L 192,474 L 191,474 L 190,475 L 189,475 L 187,477 L 185,477 L 183,479 L 182,479 L 179,482 L 178,482 L 174,486 L 174,487 L 173,488 L 172,488 L 172,489 L 171,490 L 171,491 L 168,494 L 168,495 L 167,496 L 167,497 L 166,498 L 166,501 L 165,502 L 165,503 L 164,504 L 164,508 L 163,509 L 162,509 L 162,527 L 163,528 L 163,532 L 164,533 L 164,534 L 165,535 L 165,536 L 166,537 L 166,539 L 167,540 L 167,541 L 168,542 L 168,545 L 169,546 L 169,547 L 170,548 L 170,556 L 168,558 L 168,559 L 167,560 L 167,561 L 166,562 L 165,562 L 165,563 L 164,564 L 163,564 L 161,566 L 160,566 L 160,577 L 161,577 L 162,578 L 162,580 L 163,581 L 164,581 L 165,582 L 166,582 L 167,583 L 168,583 L 169,584 L 170,584 L 171,585 L 172,585 L 173,586 L 174,586 L 179,591 L 179,603 L 178,604 L 178,606 L 177,607 L 177,608 L 176,609 L 176,613 L 175,614 L 175,616 L 174,617 L 174,620 L 173,621 L 173,623 L 172,624 L 172,625 L 171,626 L 171,627 L 170,628 L 170,629 L 169,630 L 169,631 L 168,632 L 168,633 L 162,639 L 161,639 L 161,640 L 160,641 L 159,641 L 159,645 L 158,646 L 157,646 L 157,649 L 156,650 L 156,653 L 155,654 L 155,655 L 154,656 L 154,658 L 152,660 L 152,661 L 149,664 L 149,665 L 146,668 L 145,668 L 142,671 L 142,672 L 136,678 L 136,679 L 135,680 L 135,681 L 134,682 L 134,683 L 132,685 L 132,689 L 131,690 L 131,697 L 130,698 L 130,702 L 129,703 L 129,713 L 130,714 L 130,717 L 132,719 L 133,719 L 135,721 L 145,721 L 146,722 L 150,722 L 151,723 L 157,723 L 158,722 L 163,722 L 164,723 L 183,723 L 184,722 L 191,722 L 192,723 L 199,723 L 200,722 L 234,722 L 235,721 L 248,721 L 249,722 L 250,722 L 251,723 L 255,723 L 255,640 L 253,640 L 252,639 L 251,639 L 250,638 L 250,637 L 249,637 L 242,630 L 242,629 L 240,627 L 240,622 L 239,621 L 239,619 L 238,618 L 238,613 L 237,612 L 237,610 L 236,609 L 236,608 L 235,607 L 235,602 L 234,601 L 234,598 L 233,597 L 233,593 L 234,592 L 234,590 L 235,589 L 235,588 L 237,586 L 238,586 L 239,585 L 240,585 L 241,584 L 242,584 L 243,583 L 245,583 L 247,581 L 248,581 L 249,580 L 250,580 L 250,579 L 251,578 L 252,578 L 253,577 L 255,577 L 255,567 L 252,567 L 251,566 L 251,565 L 250,564 L 247,564 L 246,563 L 244,563 L 241,560 L 241,559 L 240,558 L 240,548 L 241,547 L 241,545 L 245,541 L 245,540 L 246,539 L 246,537 L 247,536 L 247,535 L 248,534 L 248,529 L 249,528 L 249,506 L 248,505 L 248,504 L 247,503 L 247,500 L 246,499 L 246,498 L 245,497 L 245,495 L 244,494 L 244,493 L 240,489 L 240,488 L 239,487 L 239,486 L 238,485 L 237,485 L 236,484 L 236,483 L 235,482 L 234,482 L 231,479 L 230,479 L 228,477 L 227,477 L 224,474 L 223,474 L 222,473 L 220,473 L 219,472 L 215,472 L 214,471 Z" fill="white"/><path d="M 0,469 L 0,471 L 2,471 L 3,470 L 3,469 Z" fill="white"/><path d="M 0,401 L 0,434 L 3,434 L 4,435 L 7,435 L 8,436 L 8,443 L 7,444 L 0,444 L 0,445 L 13,445 L 14,446 L 20,446 L 21,447 L 21,452 L 26,452 L 27,453 L 27,462 L 26,463 L 21,463 L 20,464 L 12,464 L 11,463 L 11,462 L 10,462 L 9,461 L 9,457 L 9,462 L 8,463 L 8,464 L 9,465 L 12,465 L 13,466 L 13,469 L 14,470 L 14,474 L 13,475 L 9,475 L 8,476 L 8,477 L 9,478 L 10,478 L 12,476 L 18,476 L 19,477 L 19,481 L 18,482 L 16,482 L 16,483 L 21,483 L 21,480 L 23,478 L 27,478 L 30,475 L 30,474 L 31,473 L 32,473 L 32,472 L 33,471 L 34,471 L 34,466 L 35,465 L 39,465 L 40,466 L 40,481 L 39,482 L 33,482 L 33,484 L 35,484 L 36,483 L 40,483 L 41,484 L 41,488 L 40,489 L 40,495 L 39,496 L 33,496 L 34,497 L 35,496 L 40,496 L 41,497 L 41,507 L 40,508 L 41,509 L 41,517 L 40,518 L 31,518 L 30,517 L 23,517 L 22,516 L 22,511 L 23,510 L 23,509 L 22,508 L 20,508 L 20,513 L 18,515 L 12,515 L 11,514 L 11,508 L 10,507 L 8,507 L 8,508 L 7,509 L 3,509 L 2,508 L 0,508 L 0,531 L 2,531 L 3,532 L 3,534 L 6,534 L 7,535 L 7,536 L 8,537 L 8,539 L 9,540 L 9,552 L 8,553 L 8,561 L 9,562 L 11,562 L 11,556 L 12,555 L 18,555 L 20,557 L 20,565 L 19,566 L 13,566 L 13,568 L 14,569 L 15,569 L 16,568 L 20,568 L 21,569 L 21,574 L 22,574 L 23,573 L 27,573 L 28,574 L 31,574 L 33,576 L 33,587 L 34,588 L 34,592 L 33,593 L 34,593 L 34,589 L 35,588 L 39,588 L 40,589 L 40,611 L 39,612 L 34,612 L 33,613 L 24,613 L 22,611 L 22,605 L 21,605 L 21,611 L 20,612 L 16,612 L 15,611 L 14,611 L 13,610 L 13,606 L 12,605 L 9,605 L 9,610 L 7,612 L 0,612 L 0,645 L 3,645 L 3,640 L 4,639 L 9,639 L 11,637 L 13,637 L 13,636 L 15,634 L 19,634 L 20,635 L 20,638 L 21,639 L 22,639 L 23,638 L 23,636 L 24,635 L 31,635 L 34,638 L 39,638 L 41,640 L 41,644 L 40,645 L 40,651 L 41,652 L 41,657 L 40,658 L 40,664 L 41,665 L 41,669 L 40,670 L 40,672 L 39,673 L 30,673 L 29,672 L 28,673 L 24,673 L 23,672 L 23,671 L 21,671 L 21,672 L 20,673 L 15,673 L 14,672 L 14,671 L 13,671 L 13,672 L 12,673 L 4,673 L 3,672 L 3,671 L 2,670 L 0,670 L 0,676 L 7,676 L 9,678 L 11,676 L 20,676 L 21,677 L 23,677 L 24,676 L 34,676 L 35,677 L 40,677 L 41,678 L 41,682 L 40,683 L 40,684 L 39,685 L 38,685 L 37,686 L 30,686 L 29,687 L 23,687 L 22,686 L 0,686 L 0,697 L 6,697 L 8,699 L 8,703 L 11,703 L 11,699 L 12,698 L 21,698 L 22,699 L 22,702 L 27,702 L 28,703 L 28,707 L 27,708 L 22,708 L 21,709 L 21,712 L 20,713 L 9,713 L 7,715 L 0,715 L 0,723 L 38,723 L 39,722 L 47,722 L 48,723 L 68,723 L 69,724 L 77,724 L 78,723 L 82,723 L 83,722 L 84,722 L 86,720 L 86,718 L 88,716 L 88,712 L 89,711 L 89,706 L 88,705 L 88,703 L 87,702 L 87,700 L 86,699 L 86,696 L 85,695 L 85,694 L 84,693 L 84,692 L 83,691 L 83,677 L 82,676 L 82,670 L 80,668 L 80,666 L 79,666 L 78,665 L 78,663 L 72,657 L 72,656 L 71,655 L 71,654 L 70,653 L 70,652 L 67,649 L 67,648 L 66,647 L 66,645 L 65,645 L 64,644 L 64,642 L 62,640 L 62,637 L 61,636 L 61,635 L 60,634 L 60,631 L 59,630 L 59,624 L 58,623 L 58,616 L 57,615 L 57,614 L 56,613 L 56,612 L 54,610 L 54,609 L 53,608 L 53,605 L 52,604 L 52,602 L 51,601 L 51,598 L 50,597 L 50,596 L 49,595 L 49,594 L 48,593 L 48,589 L 47,588 L 47,586 L 46,585 L 46,584 L 45,583 L 45,582 L 44,581 L 44,580 L 43,580 L 42,579 L 42,578 L 41,577 L 41,576 L 39,574 L 39,573 L 37,571 L 37,570 L 36,569 L 36,568 L 34,566 L 34,565 L 33,565 L 32,564 L 32,563 L 31,562 L 31,561 L 30,560 L 30,558 L 29,557 L 29,556 L 28,555 L 28,554 L 27,553 L 27,552 L 24,549 L 24,548 L 23,547 L 23,546 L 22,545 L 22,544 L 21,543 L 21,542 L 20,541 L 20,540 L 19,539 L 19,538 L 18,537 L 18,532 L 21,529 L 22,529 L 23,528 L 33,528 L 34,529 L 35,529 L 36,530 L 37,530 L 39,532 L 40,532 L 41,533 L 42,533 L 46,537 L 47,537 L 49,539 L 53,539 L 54,540 L 62,540 L 63,539 L 68,539 L 69,538 L 71,538 L 76,533 L 77,533 L 77,532 L 79,530 L 79,529 L 80,528 L 80,527 L 81,526 L 81,518 L 80,517 L 80,513 L 81,512 L 82,512 L 82,510 L 81,509 L 81,502 L 79,500 L 79,499 L 78,498 L 78,496 L 71,489 L 71,488 L 59,476 L 59,475 L 57,473 L 57,472 L 56,471 L 56,470 L 54,468 L 54,467 L 48,461 L 48,460 L 44,456 L 43,456 L 39,452 L 39,451 L 36,448 L 36,447 L 33,444 L 33,443 L 32,442 L 32,431 L 33,430 L 33,421 L 32,420 L 32,412 L 14,412 L 13,411 L 12,411 L 11,410 L 10,410 L 8,408 L 7,408 L 6,407 L 6,405 L 5,404 L 5,403 L 4,403 L 3,402 L 3,401 Z" fill="white"/></svg>