<svg xmlns="http://www.w3.org/2000/svg" width="256" height="1024" viewBox="0 0 256 1024"><path d="M 0,691 L 0,721 L 4,717 L 4,701 L 3,700 L 3,697 L 2,696 L 2,695 L 0,693 Z" fill="white"/><path d="M 0,667 L 0,682 L 0,673 L 1,672 L 1,670 L 0,669 Z" fill="white"/><path d="M 254,658 L 254,659 L 253,660 L 253,661 L 251,663 L 251,665 L 249,667 L 249,675 L 248,676 L 248,690 L 247,691 L 247,693 L 246,694 L 246,704 L 245,705 L 245,714 L 248,717 L 248,718 L 251,721 L 254,721 L 255,722 L 255,658 Z" fill="white"/><path d="M 129,243 L 128,244 L 122,244 L 120,246 L 119,246 L 119,247 L 118,248 L 118,250 L 117,251 L 117,260 L 118,261 L 118,264 L 119,265 L 119,274 L 118,275 L 117,275 L 116,276 L 116,280 L 115,281 L 111,281 L 110,280 L 110,279 L 109,278 L 109,276 L 104,271 L 103,271 L 101,269 L 100,269 L 99,268 L 93,268 L 92,269 L 91,269 L 91,270 L 90,271 L 89,271 L 89,272 L 88,273 L 88,274 L 86,276 L 86,283 L 87,284 L 87,285 L 88,286 L 88,291 L 87,292 L 81,292 L 80,291 L 80,290 L 79,289 L 79,287 L 78,286 L 78,284 L 76,282 L 76,281 L 74,279 L 73,279 L 72,278 L 64,278 L 63,279 L 62,279 L 61,280 L 60,280 L 60,281 L 59,282 L 59,283 L 58,284 L 58,285 L 57,286 L 57,287 L 58,288 L 58,291 L 59,292 L 59,293 L 60,294 L 60,295 L 61,296 L 61,297 L 63,299 L 63,300 L 68,305 L 68,307 L 69,308 L 69,309 L 70,310 L 70,312 L 71,313 L 71,315 L 72,316 L 72,317 L 73,318 L 73,319 L 75,321 L 75,322 L 76,323 L 76,324 L 77,325 L 77,328 L 78,329 L 78,331 L 79,332 L 79,333 L 80,334 L 80,335 L 81,336 L 81,337 L 82,338 L 82,340 L 83,341 L 83,343 L 84,344 L 84,346 L 85,347 L 85,348 L 86,349 L 86,352 L 87,353 L 87,370 L 84,373 L 84,374 L 80,378 L 80,379 L 79,380 L 79,381 L 78,382 L 78,383 L 77,384 L 77,385 L 76,386 L 76,388 L 75,389 L 75,390 L 73,392 L 72,392 L 71,393 L 71,394 L 70,395 L 70,396 L 69,397 L 69,408 L 71,410 L 71,411 L 73,413 L 74,413 L 75,414 L 76,414 L 78,416 L 79,416 L 80,417 L 81,417 L 82,418 L 83,418 L 87,422 L 87,423 L 88,424 L 88,426 L 89,427 L 89,431 L 88,432 L 88,438 L 89,438 L 90,439 L 90,448 L 89,449 L 88,449 L 88,458 L 89,459 L 89,463 L 88,464 L 88,465 L 87,466 L 87,489 L 86,490 L 86,519 L 85,520 L 85,522 L 84,523 L 84,530 L 83,531 L 83,537 L 82,538 L 82,549 L 80,551 L 80,563 L 78,565 L 78,574 L 77,575 L 77,577 L 76,578 L 76,584 L 75,585 L 74,585 L 74,588 L 73,589 L 73,591 L 72,592 L 72,595 L 71,596 L 71,597 L 68,600 L 68,601 L 65,604 L 65,605 L 63,607 L 63,608 L 62,609 L 62,613 L 61,614 L 61,623 L 60,624 L 60,627 L 59,628 L 59,629 L 58,630 L 58,631 L 57,632 L 57,633 L 56,634 L 56,635 L 55,636 L 55,637 L 54,638 L 54,639 L 49,644 L 49,645 L 48,646 L 48,647 L 47,648 L 47,649 L 46,650 L 46,651 L 44,653 L 44,654 L 42,656 L 42,657 L 40,659 L 40,660 L 39,661 L 39,667 L 38,668 L 38,672 L 37,673 L 37,675 L 38,676 L 38,679 L 39,680 L 39,688 L 38,689 L 38,691 L 37,692 L 37,716 L 38,717 L 38,718 L 40,720 L 41,720 L 42,721 L 44,721 L 45,722 L 47,722 L 48,723 L 78,723 L 79,724 L 135,724 L 136,723 L 141,723 L 142,724 L 198,724 L 199,723 L 209,723 L 210,722 L 211,722 L 212,721 L 213,721 L 216,718 L 216,717 L 217,716 L 217,712 L 218,711 L 218,705 L 217,704 L 217,695 L 216,694 L 216,692 L 215,691 L 215,690 L 214,689 L 214,679 L 215,678 L 215,670 L 214,669 L 214,660 L 213,659 L 213,658 L 210,655 L 210,654 L 208,652 L 208,650 L 207,649 L 207,648 L 206,647 L 206,645 L 202,641 L 202,640 L 200,638 L 200,637 L 198,635 L 198,632 L 196,630 L 196,629 L 195,628 L 195,627 L 194,626 L 194,624 L 193,623 L 193,619 L 192,618 L 192,612 L 191,611 L 191,610 L 190,609 L 190,606 L 186,602 L 186,601 L 184,599 L 184,598 L 181,595 L 181,594 L 179,592 L 179,588 L 178,587 L 178,584 L 177,583 L 177,579 L 176,578 L 176,570 L 175,569 L 175,564 L 174,563 L 174,555 L 173,554 L 173,552 L 172,551 L 172,546 L 171,545 L 171,541 L 170,540 L 170,525 L 169,524 L 169,514 L 168,513 L 168,495 L 167,494 L 167,473 L 166,472 L 166,456 L 165,455 L 165,453 L 164,452 L 164,422 L 165,421 L 165,420 L 166,419 L 167,419 L 168,418 L 169,418 L 170,417 L 171,417 L 172,416 L 173,416 L 174,415 L 175,415 L 176,414 L 177,414 L 178,413 L 179,413 L 181,411 L 182,411 L 185,408 L 185,407 L 186,406 L 186,399 L 185,398 L 185,397 L 183,395 L 183,394 L 181,394 L 180,393 L 180,392 L 179,392 L 178,391 L 177,391 L 176,390 L 176,389 L 175,388 L 175,382 L 172,379 L 172,378 L 171,377 L 171,376 L 170,375 L 169,375 L 167,373 L 167,372 L 166,371 L 166,369 L 165,368 L 165,352 L 166,351 L 166,349 L 167,348 L 167,346 L 168,345 L 168,343 L 169,342 L 169,341 L 170,340 L 170,337 L 172,335 L 172,334 L 174,332 L 174,328 L 176,326 L 176,325 L 177,324 L 177,322 L 180,319 L 180,318 L 181,317 L 181,316 L 182,315 L 182,313 L 183,312 L 183,309 L 185,307 L 185,305 L 186,304 L 186,303 L 188,301 L 188,300 L 191,297 L 192,297 L 192,296 L 194,294 L 194,293 L 196,291 L 196,288 L 195,287 L 195,282 L 191,278 L 181,278 L 179,280 L 177,280 L 174,283 L 174,291 L 171,294 L 170,294 L 169,295 L 163,295 L 161,293 L 161,289 L 162,288 L 163,288 L 168,283 L 168,281 L 169,280 L 168,279 L 168,278 L 167,277 L 167,276 L 166,275 L 166,274 L 163,271 L 162,271 L 161,270 L 161,269 L 153,269 L 151,271 L 149,271 L 146,274 L 146,275 L 144,277 L 138,277 L 137,276 L 137,275 L 136,274 L 136,267 L 137,266 L 137,263 L 138,262 L 138,251 L 137,250 L 137,249 L 136,248 L 136,247 L 135,246 L 134,246 L 133,245 L 132,245 L 130,243 Z" fill="white"/></svg>