<svg xmlns="http://www.w3.org/2000/svg" width="256" height="1024" viewBox="0 0 256 1024"><path d="M 255,566 L 254,567 L 254,573 L 253,574 L 253,579 L 251,581 L 251,588 L 250,589 L 249,589 L 249,593 L 248,594 L 248,602 L 246,604 L 246,607 L 245,608 L 245,609 L 240,614 L 240,615 L 239,616 L 238,616 L 238,617 L 236,619 L 236,620 L 234,622 L 234,625 L 233,626 L 233,627 L 232,628 L 232,634 L 231,635 L 231,640 L 230,641 L 230,643 L 229,644 L 229,645 L 228,646 L 228,647 L 227,648 L 226,648 L 226,649 L 225,650 L 225,651 L 223,653 L 223,655 L 218,660 L 218,661 L 216,663 L 216,665 L 214,667 L 214,668 L 212,670 L 212,671 L 211,672 L 211,673 L 210,674 L 210,677 L 209,678 L 209,680 L 208,681 L 208,683 L 209,684 L 209,691 L 208,692 L 208,696 L 207,697 L 207,700 L 206,701 L 206,711 L 207,712 L 207,713 L 208,714 L 208,716 L 209,717 L 209,718 L 211,720 L 212,720 L 213,721 L 215,721 L 216,722 L 255,722 Z" fill="white"/><path d="M 255,413 L 255,414 L 253,416 L 253,417 L 252,418 L 252,419 L 251,420 L 251,421 L 250,422 L 250,423 L 249,424 L 249,425 L 248,426 L 248,428 L 247,429 L 247,434 L 246,435 L 246,437 L 245,438 L 245,440 L 244,441 L 244,442 L 243,443 L 243,454 L 242,455 L 242,459 L 243,460 L 243,465 L 244,466 L 244,468 L 245,469 L 245,472 L 246,473 L 246,474 L 247,475 L 247,482 L 248,483 L 248,486 L 249,487 L 249,493 L 248,494 L 248,498 L 247,499 L 247,503 L 246,504 L 246,505 L 245,506 L 245,507 L 244,508 L 244,509 L 243,510 L 243,511 L 242,512 L 241,512 L 238,515 L 238,518 L 237,519 L 237,526 L 238,527 L 238,528 L 239,528 L 240,529 L 240,530 L 242,532 L 243,532 L 244,533 L 245,533 L 246,534 L 247,534 L 248,535 L 249,535 L 250,536 L 251,536 L 254,539 L 254,540 L 255,541 L 255,544 Z" fill="white"/><path d="M 30,319 L 29,320 L 26,320 L 25,321 L 25,351 L 24,352 L 24,365 L 25,366 L 25,374 L 26,375 L 26,376 L 35,385 L 35,386 L 36,386 L 37,387 L 37,402 L 38,403 L 38,404 L 39,405 L 39,407 L 40,408 L 40,410 L 41,411 L 41,422 L 42,423 L 42,431 L 41,432 L 42,433 L 42,449 L 40,451 L 40,472 L 41,473 L 41,485 L 40,486 L 40,495 L 39,496 L 39,509 L 38,510 L 38,516 L 37,517 L 37,525 L 36,526 L 36,537 L 35,538 L 35,541 L 34,542 L 34,551 L 33,552 L 33,557 L 32,558 L 32,564 L 31,565 L 31,577 L 30,578 L 30,583 L 29,584 L 29,589 L 28,590 L 28,596 L 27,597 L 26,597 L 26,599 L 25,600 L 25,601 L 24,602 L 24,603 L 22,605 L 22,606 L 18,610 L 18,613 L 17,614 L 17,615 L 16,616 L 16,628 L 15,629 L 15,631 L 14,632 L 14,633 L 13,634 L 13,635 L 12,636 L 12,637 L 11,638 L 11,639 L 10,640 L 10,641 L 9,642 L 9,643 L 7,645 L 7,646 L 5,648 L 5,649 L 3,651 L 3,652 L 2,653 L 0,653 L 0,723 L 19,723 L 20,724 L 87,724 L 88,723 L 101,723 L 102,722 L 127,722 L 128,723 L 142,723 L 143,722 L 166,722 L 167,721 L 169,721 L 170,720 L 172,720 L 174,718 L 174,714 L 175,713 L 175,701 L 174,700 L 174,696 L 173,695 L 173,694 L 172,693 L 172,692 L 171,691 L 171,690 L 170,689 L 170,680 L 171,679 L 171,669 L 170,668 L 170,667 L 169,666 L 169,665 L 168,664 L 168,663 L 165,660 L 165,659 L 164,658 L 164,657 L 162,655 L 162,653 L 160,651 L 160,650 L 159,649 L 159,648 L 158,647 L 158,646 L 157,645 L 157,643 L 155,641 L 155,640 L 154,640 L 153,639 L 153,638 L 152,637 L 152,636 L 150,634 L 150,631 L 149,630 L 149,628 L 148,627 L 148,614 L 147,613 L 147,612 L 146,611 L 146,610 L 144,608 L 144,607 L 143,606 L 143,605 L 140,602 L 140,601 L 139,600 L 138,600 L 137,599 L 137,598 L 136,597 L 136,588 L 135,587 L 135,586 L 134,585 L 134,576 L 133,575 L 133,569 L 132,568 L 132,558 L 131,557 L 131,551 L 130,550 L 130,540 L 129,539 L 129,520 L 127,518 L 127,507 L 126,506 L 126,494 L 125,493 L 125,485 L 126,484 L 126,481 L 125,480 L 125,476 L 124,475 L 124,469 L 123,468 L 123,439 L 122,438 L 122,406 L 124,404 L 124,403 L 126,401 L 126,400 L 127,399 L 127,383 L 128,382 L 130,382 L 132,380 L 132,379 L 135,376 L 136,376 L 136,375 L 139,372 L 139,325 L 138,324 L 138,320 L 132,320 L 131,319 L 111,319 L 110,320 L 108,320 L 107,321 L 106,321 L 105,322 L 98,322 L 97,321 L 97,320 L 96,319 L 65,319 L 62,322 L 61,322 L 60,323 L 56,323 L 55,322 L 54,322 L 51,319 Z" fill="white"/></svg>