
    <svg xmlns="http://www.w3.org/2000/svg" viewBox="0 0 512 1024">
      <defs>
        <pattern id="dots" x="0" y="0" width="12" height="12" patternUnits="userSpaceOnUse">
          <circle cx="3" cy="3" r="2" fill="white"/>
        </pattern>
        <mask id="mask">
          <rect width="100%" height="100%" fill="black"/>
          <path d="M 0,0 L 0,192 L 36,160 L 91,208 L 73,272 L 219,304 L 182,368 L 256,352 L 310,416 L 36,464 L 0,432 L 0,560 L 54,480 L 73,560 L 128,560 L 91,480 L 164,480 L 201,560 L 237,560 L 256,480 L 310,512 L 256,624 L 0,624 L 0,736 L 365,736 L 402,768 L 365,912 L 182,896 L 146,928 L 73,896 L 36,928 L 0,896 L 0,1008 L 402,1008 L 493,944 L 493,720 L 402,624 L 438,416 Z" fill="white"/>
        </mask>
      </defs>
      <rect width="100%" height="100%" fill="url(#dots)" mask="url(#mask)"/>
    </svg>
    