
    <svg xmlns="http://www.w3.org/2000/svg" viewBox="0 0 512 1024">
      <defs>
        <pattern id="dots" x="0" y="0" width="12" height="12" patternUnits="userSpaceOnUse">
          <circle cx="3" cy="3" r="2" fill="white"/>
        </pattern>
        <mask id="mask">
          <rect width="100%" height="100%" fill="black"/>
          <path d="M 203,0 L 217,32 L 168,30 L 168,84 L 217,89 L 179,127 L 72,157 L 144,299 L 80,406 L 150,424 L 104,766 L 5,914 L 0,1011 L 509,1021 L 509,912 L 407,769 L 364,424 L 418,418 L 434,388 L 372,346 L 369,297 L 436,159 L 292,87 L 340,84 L 340,30 L 297,32 L 310,0 Z" fill="white"/>
        </mask>
      </defs>
      <rect width="100%" height="100%" fill="url(#dots)" mask="url(#mask)"/>
    </svg>
    